<svg width="82" height="28" viewBox="0 0 82 28" fill="none" xmlns="http://www.w3.org/2000/svg">
<path d="M0.52 28V-1.90735e-06H6.6L21.28 20L19.96 19.8C19.8267 18.92 19.72 18.08 19.64 17.28C19.56 16.48 19.48 15.6933 19.4 14.92C19.3467 14.1467 19.2933 13.36 19.24 12.56C19.2133 11.76 19.1867 10.8933 19.16 9.96C19.16 9.02667 19.16 8.01333 19.16 6.92V-1.90735e-06H25.76V28H19.6L4.28 7.36L6.32 7.64C6.45333 8.92 6.56 10.0133 6.64 10.92C6.74667 11.8 6.82667 12.5867 6.88 13.28C6.96 13.9733 7.01333 14.6 7.04 15.16C7.06667 15.72 7.08 16.28 7.08 16.84C7.10667 17.3733 7.12 17.9733 7.12 18.64V28H0.52ZM38.8656 28V6H30.5456V-1.90735e-06H54.1856V6H45.6656V28H38.8656ZM58.9966 28V-1.90735e-06H71.3566C73.2766 -1.90735e-06 74.9032 0.279998 76.2366 0.839999C77.5699 1.37333 78.5699 2.16 79.2366 3.2C79.9299 4.21333 80.2766 5.44 80.2766 6.88C80.2766 8.48 79.8766 9.82667 79.0766 10.92C78.3032 12.0133 77.1699 12.7467 75.6766 13.12L75.5966 12.36C76.8499 12.6267 77.9299 13.0933 78.8366 13.76C79.7699 14.4267 80.4899 15.2533 80.9966 16.24C81.5032 17.2 81.7566 18.2933 81.7566 19.52C81.7566 20.9333 81.5166 22.1733 81.0366 23.24C80.5566 24.28 79.8632 25.16 78.9566 25.88C78.0499 26.6 76.9832 27.1333 75.7566 27.48C74.5566 27.8267 73.2232 28 71.7566 28H58.9966ZM65.3966 22.32H71.5166C72.2632 22.32 72.8899 22.2 73.3966 21.96C73.9299 21.72 74.3432 21.3733 74.6366 20.92C74.9299 20.44 75.0766 19.8667 75.0766 19.2C75.0766 18.5867 74.9166 18.0667 74.5966 17.64C74.3032 17.2133 73.8766 16.8933 73.3166 16.68C72.7566 16.44 72.0899 16.32 71.3166 16.32H65.3966V22.32ZM65.3966 11.24H70.3966C71.0899 11.24 71.6766 11.1333 72.1566 10.92C72.6632 10.68 73.0366 10.36 73.2766 9.96C73.5432 9.53333 73.6766 9.02667 73.6766 8.44C73.6766 7.58667 73.3832 6.92 72.7966 6.44C72.2099 5.93333 71.3299 5.68 70.1566 5.68H65.3966V11.24Z" fill="white"/>
</svg>
